<svg id="Calque_1" data-name="Calque 1" xmlns="http://www.w3.org/2000/svg" viewBox="0 0 740.39 565.76"><defs><style>.cls-1{fill:#fefefe;}.cls-2{fill:#01579b;}.cls-3{fill:#02a7fd;}.cls-4{font-size:178.71px;fill:#2196f3;font-family:Roboto-Regular, Roboto;}.cls-5{letter-spacing:-0.01em;}</style></defs><title>zadaz</title><path class="cls-1" d="M629.68,352.11c-4.81-1.22-8.27,1.51-10.64,6.41-1.37,2.84-3.06,5.52-4.57,8.28-7.33,13.4-14.74,26.76-21.08,40.67-3.17,6.95-2.36,9.49,3.71,14.06,4.53,3.41,9.75,5.65,14.62,8.47,4.14,2.39,6.79,1.52,9.5-2.21A513.47,513.47,0,0,0,655,374.28a7.43,7.43,0,0,0,0-7.5C650.05,356.52,641.84,351.79,629.68,352.11Zm-19.58,7.2a9.12,9.12,0,0,0-1.78-4.75c-4.61-7.27-17.88-13.06-26.24-11.59a3.71,3.71,0,0,0-2.68,1.91q-12.41,19-24.86,38c-2,3.08-2,6.17-.73,9.49,3.39,8.55,11.31,10.89,18.85,13.17,9.15,2.76,11.67,1.64,17.06-6.42a213.42,213.42,0,0,0,18.18-33.77C608.77,363.39,609.38,361.33,610.11,359.31Zm-74.32-16.25c-4.72-.71-8.45,1.44-11.63,5a68.2,68.2,0,0,0-8.65,12.17c-2.75,4.9-2.27,9.62,1.34,13.88A33.32,33.32,0,0,0,535,384.84,10.14,10.14,0,0,0,546.1,381c2.81-3.71,6-7.18,8.53-11,5.52-8.32,4.85-13.45-2.46-20.45C547.69,345.23,542.46,342.55,535.79,343.06Z" transform="translate(-314.74 -143.54)"/><path class="cls-2" d="M425.81,282.05c-.63-24.1,4.1-47.33,10.65-70.37a303.57,303.57,0,0,1,11.64-32.3c1.38-3.36,3-4.66,7.11-3.42,26.43,7.88,53.1,15,79.43,23.19,12.94,4,22.58-1.63,32.49-7.93Q594.8,173.66,622.4,156c2.66-1.71,5.42-1,8.12-.6a17,17,0,0,1,5.47,1.76c2.4,1.27,6.17,1.8,6.5,4.62.26,2.19-3.35,2.94-5.24,4.29-6.32,4.54-12.91,8.7-19.13,13.37-5.62,4.22-6.4,11.14-8.18,17.27Q603.73,218.1,599.36,240c-1.27,6.31-2.22,12.75-1.41,19.13.87,6.87,4.92,11.73,11.16,15,13.06,6.8,26.89,10,41.52,8.76a13.09,13.09,0,0,0,11.2-7.55c4.4-9.34,5.9-19.45,7.94-29.4,1.27-6.2,2.23-12.48,3.26-18.73,1.24-7.48,7.16-11.71,13.32-15.38.85-.51,1.23-.26,2,.15q32.47,17,64,35.8c20.73,12.29,41.76,24.08,62.76,35.92,10.87,6.13,12.34,13.7,4.35,26.13-7.49,11.64-14.9,12.22-29,3.34-9.57-6-18.65-12.84-29.24-17.19-2.32-1-4.74-.64-7.05-1.66-1.29-.57-3.63.61-4.21,2.57-.5,1.68.78,2.37,2.18,3.28,7.89,5.16,16.42,9.13,24.57,13.8,7.31,4.19,14.79,8,21.26,13.61,4.44,3.81,4.81,8.52,3.29,13.45a40.16,40.16,0,0,1-11,18.13c-2.94,2.71-5.83,3.56-9.8,2.13-10.16-3.67-18.79-10-28.07-15.27-6.47-3.64-12.63-7.79-19.32-11.06-2.86-1.4-5.36-.95-6.82,1.48-1.74,2.89,1.54,3.53,3.1,4.5,9.09,5.6,18.32,11,27.42,16.56,3.45,2.12,6.64,4.66,10,6.92a7.15,7.15,0,0,1,3,8.26c-1.59,6.12-4,12-8.05,16.94-6.29,7.57-12.17,8.52-20.52,3.07-9-5.87-18.49-10.74-28-15.58a27.79,27.79,0,0,0-4.94-1.91c-1.05-.3-2.57-.7-3.18.46-.7,1.33.17,2.54,1.42,3.3,4.42,2.69,8.91,5.27,13.26,8.07,6.1,3.92,7.89,10.62,4.62,17-3.4,6.63-6.29,13.67-13.76,17.09a11.33,11.33,0,0,1-8.61.4c-7.44-2.56-8.33-5.56-4-12.15,4.93-7.47,3.47-18.46-2.86-25.69-6.95-7.94-15.37-13.11-25.8-14.42-3.24-.41-4.39-1.84-5.53-4.45-4.59-10.48-11.78-17.87-23.34-21-8.11-2.21-15.09-.82-22.15,3.07-5.75,3.17-5.85,3-8.93-2.85a17.4,17.4,0,0,0-7.52-7.5c-4.8-2.48-10.09-3.46-15.3-4.4-6.15-1.11-11.19,1.19-15.31,6-2.71,3.14-5.52,7.55-9,8.31s-6.42-4.12-9.78-6.3c-6.5-4.21-13.54-7.37-21.14-7.84-6.39-.39-10.85,4.57-14.14,9.38-3,4.33-5.12,5.45-10.72,4-24.5-6.49-48.73-13.9-73.17-20.57-4.23-1.15-8-2.79-8.44-8" transform="translate(-314.74 -143.54)"/><path class="cls-3" d="M687.83,144c32.06,7.91,56.94,33.31,85.34,50.09a12,12,0,0,0,9.79,1.44c43-10.32,85.27-23.56,128.2-34.22,4.93-1.22,7.19-.2,9.31,4.1,9.77,19.84,18.46,40,22.8,61.88,1.4,7.07,1.56,14.2,1.62,21.36.18,18.64.37,37.27-1.81,55.85-.49,4.13-2.43,5.6-6,6.58-22.34,6.21-44.62,12.62-67,18.81C851.48,335.11,832.7,340,814,345.24c-3.63,1-4.52.06-4.26-3.29a25.28,25.28,0,0,0-.11-3.49c-.31-5.11.39-8.33,5.93-11.89,11.58-7.44,17.67-19.21,16.32-33.64-.57-6.14-3.91-10.89-9.18-14.1-43.3-26.36-87.35-51.43-131.37-76.55-3.07-1.75-5.25-1.7-8,.41-5.16,3.91-10.56,7.51-15.9,11.19a6.48,6.48,0,0,0-2.8,4.38c-3.37,15.21-6.4,30.5-10.66,45.51-1.77,6.24-5.29,8.89-11.56,9.48-7.7.72-15.13,1.16-22.42-2.42-6.31-3.1-8.79-8-9.13-14.7-.69-13.6,1.71-26.83,4.35-40,1.2-6,2.46-12,3.74-18a26.4,26.4,0,0,1,10.35-16.47q22.12-16.25,44.1-32.69a43.34,43.34,0,0,1,8.43-4.86C683.66,143.22,685.89,143.56,687.83,144Z" transform="translate(-314.74 -143.54)"/><path class="cls-3" d="M651.84,453c-4.23-1.68-8.55-3.18-12.69-5.08-7.36-3.38-9.65-8.72-6-15.85a539.83,539.83,0,0,1,28.7-49c2.55-3.89,6.32-3.43,9.84-2.92a24.37,24.37,0,0,1,16.83,10.56,11.56,11.56,0,0,1,1.7,10.87A210,210,0,0,1,666.39,449a35.78,35.78,0,0,1-3.55,4Z" transform="translate(-314.74 -143.54)"/><path class="cls-3" d="M629.68,352.11c12.16-.32,20.37,4.41,25.34,14.68a7.43,7.43,0,0,1,0,7.5,513.47,513.47,0,0,1-33.79,53.51c-2.71,3.73-5.36,4.6-9.5,2.21-4.88-2.82-10.09-5.06-14.62-8.47-6.07-4.57-6.88-7.11-3.71-14.06,6.34-13.91,13.74-27.27,21.08-40.67,1.51-2.77,3.2-5.45,4.57-8.28C621.41,353.62,624.87,350.89,629.68,352.11Z" transform="translate(-314.74 -143.54)"/><path class="cls-3" d="M610.11,359.31c-.72,2-1.34,4.08-2.19,6a213.42,213.42,0,0,1-18.18,33.77c-5.39,8.07-7.91,9.19-17.06,6.42-7.55-2.28-15.47-4.61-18.85-13.17-1.32-3.33-1.29-6.42.73-9.49q12.48-19,24.86-38a3.71,3.71,0,0,1,2.68-1.91c8.36-1.47,21.63,4.32,26.24,11.59A9.12,9.12,0,0,1,610.11,359.31Z" transform="translate(-314.74 -143.54)"/><path class="cls-3" d="M535.79,343.06c6.67-.51,11.9,2.17,16.38,6.45,7.31,7,8,12.13,2.46,20.45-2.56,3.86-5.72,7.33-8.53,11A10.14,10.14,0,0,1,535,384.84a33.32,33.32,0,0,1-18.13-10.74c-3.62-4.26-4.1-9-1.34-13.88a68.2,68.2,0,0,1,8.65-12.17C527.34,344.5,531.07,342.35,535.79,343.06Z" transform="translate(-314.74 -143.54)"/><text class="cls-4" transform="translate(0 517.34)"><tspan class="cls-5">F</tspan><tspan x="96.86" y="0">und</tspan><tspan class="cls-2" x="394.76" y="0">ition</tspan></text></svg>